<svg xmlns="http://www.w3.org/2000/svg" width="623" height="83.49"><g data-name="Group 330" fill="#0099ec"><path data-name="Path 325" d="M623 0H23.6v11.8H11.8v11.8H0v59.89h599.4v-11.8h11.8v-11.8H623V0zm-46.547 15.092h31.782v5.834H595.89v23.863h-7.09V20.926h-12.347zm-21.141-.516c10.767 0 15.766 2.993 16.1 9.681h-6.562c-.274-2.017-1.963-4.068-9.539-4.068-6.151 0-9.539 1.381-9.539 3.881 0 1.1.537 1.743 1.853 2.226 1.491.5 5.5.713 8.431.855l1.239.066c4.451.241 8.333.515 10.887 1.425a6.854 6.854 0 014.583 6.557c0 6.71-5.833 10.109-17.323 10.109-10.591 0-16.15-3.344-16.523-9.945h6.557c.263 2.039 1.974 4.331 9.966 4.331 9.013 0 10.23-2.05 10.23-4.057 0-.789-.252-1.765-2.248-2.3a61.13 61.13 0 00-8-.669c-.68-.033-1.349-.066-1.963-.1-3.8-.219-8.475-.614-10.942-1.787a6.675 6.675 0 01-3.794-6.272c-.002-4.802 4.351-9.933 16.587-9.933zm-41.14 24.378h5.907V20.926h-5.9v-5.834h18.867v5.834h-5.914v18.028h5.908v5.834h-18.868zm-39.058-23.862L488.136 38.2l12.938-23.107h7.568l-16.969 29.7h-7.721l-17.014-29.7h8.177zm-32.587 23.862h5.908V20.926h-5.9v-5.834H461.4v5.834h-5.915v18.028h5.908v5.834h-18.866zm-42.788-23.862h7.094v11.474h21.287V15.092h7.052v29.7h-7.052V32.227h-21.288v12.562h-7.094v-29.7zm-23.822-.516c11.293 0 16.622 5.822 16.929 11.425h-6.633c-.537-2.511-3.388-5.592-9.988-5.592-6.853 0-11.107 3.684-11.107 9.616 0 4.572 2.949 9.451 11.194 9.451 6.162 0 9.341-2.445 10.032-5.186h6.622c-.526 5.636-5.778 11.019-16.786 11.019-8.859 0-18.321-4.013-18.321-15.284 0-9.386 7.083-15.449 18.058-15.449zm-56.258.515H338.2c9.111 0 13.727 2.993 13.727 8.892a7.03 7.03 0 01-4.265 6.787c3.629 1.48 4.09 4.846 4.09 7.379v6.644H344.7v-6.644c0-3.125-1.5-4.4-5.2-4.4h-12.748v11.044h-7.094zm-30.2 0h7.631l17.192 29.7h-8.267l-3.563-6.348h-19.041l-3.563 6.348h-7.576zM27.989 4.386h229.518V55.5H27.989zM595.01 79.1H4.386V27.989H11.8v43.7h583.21zm11.8-11.8H16.188V16.188H23.6v43.7h583.213V67.3z"/><path data-name="Path 326" d="M345.216 24.805c0-.954 0-3.881-7.489-3.881h-10.975v7.774h12.192c2.862 0 6.272-.68 6.272-3.893z"/><path data-name="Path 327" d="M292.928 21.538l-6.688 11.856h13.387z"/><path data-name="Path 328" d="M42.852 20.927h12.343V44.79h7.095V20.927h12.345v-5.832H42.852z"/><path data-name="Path 329" d="M120.687 36.335l-8.812-20.98h-6.723l-8.99 21-9.284-21.26h-7.763l13.088 29.7h7.237l8.76-20.164 8.509 20.164h7.242l13.088-29.7h-7.245z"/><path data-name="Path 330" d="M149.92 32.359h16.212v-5.007H149.92v-6.425h20.559v-5.832h-27.654v29.7h28.088v-5.838H149.92z"/><path data-name="Path 331" d="M184.823 32.359h16.212v-5.007h-16.212v-6.425h20.559v-5.832h-27.653v29.7h28.088v-5.838h-20.994z"/><path data-name="Path 332" d="M210.893 20.927h12.345V44.79h7.095V20.927h12.342v-5.832h-31.782z"/></g></svg>