<svg data-name="Group 196" xmlns="http://www.w3.org/2000/svg" width="242.383" height="74.637"><defs><clipPath id="a"><path data-name="Rectangle 483" fill="none" d="M0 0h242.383v74.636H0z"/></clipPath></defs><path data-name="Rectangle 474" fill="#fff" d="M14.006 1.175h125.285v31.268H14.006z"/><path data-name="Path 193" d="M139.586 32.736H13.713V.881h125.873zM14.3 32.149H139V1.468H14.3z" fill="#fff"/><path data-name="Path 194" d="M234.886 60.632v6.322h-6.511v6.508H34.038V43.147H1.175V14.006H7.21v-6.51h6.8v23.406h33.2v29.73z" fill="#0099ec"/><path data-name="Path 195" d="M29.98 11.33h-6.615V8.793h16.436v2.537h-6.612v12.782H29.98z" fill="#0c2a47"/><path data-name="Path 196" d="M29.98 11.33h-6.615V8.793h16.436v2.537h-6.612v12.782H29.98z" fill="none" stroke="#0c2a47" stroke-miterlimit="10"/><path data-name="Path 197" d="M42.944 8.793h3.515l5.145 11.78h.046l4.983-11.641h3.212l4.889 11.641h.047l5.052-11.78h3.236l-6.75 15.318h-3.493l-4.725-11.2h-.046l-4.866 11.2h-3.493z" fill="#0c2a47"/><path data-name="Path 198" d="M42.944 8.793h3.515l5.145 11.78h.046l4.983-11.641h3.212l4.889 11.641h.047l5.052-11.78h3.236l-6.75 15.318h-3.493l-4.725-11.2h-.046l-4.866 11.2h-3.493z" fill="none" stroke="#0c2a47" stroke-miterlimit="10"/><path data-name="Path 199" d="M76.913 8.793h14.225v2.537H80.126v4.028h8.683v2.095h-8.683v4.121h11.245v2.537H76.913z" fill="#0c2a47"/><path data-name="Path 200" d="M76.913 8.793h14.225v2.537H80.126v4.028h8.683v2.095h-8.683v4.121h11.245v2.537H76.913z" fill="none" stroke="#0c2a47" stroke-miterlimit="10"/><path data-name="Path 201" d="M95.608 8.793h14.225v2.537H98.821v4.028h8.687v2.095h-8.683v4.121h11.245v2.537H95.608z" fill="#0c2a47"/><path data-name="Path 202" d="M95.608 8.793h14.225v2.537H98.821v4.028h8.687v2.095h-8.683v4.121h11.245v2.537H95.608z" fill="none" stroke="#0c2a47" stroke-miterlimit="10"/><path data-name="Path 203" d="M119.984 11.33h-6.612V8.793h16.437v2.537h-6.612v12.782h-3.213z" fill="#0c2a47"/><path data-name="Path 204" d="M119.984 11.33h-6.612V8.793h16.437v2.537h-6.612v12.782h-3.213z" fill="none" stroke="#0c2a47" stroke-miterlimit="10"/><path data-name="Path 205" d="M15.182 2.35h122.936v27.378H15.182zm-2.35 29.726h127.635V0H12.832z" fill="#0c2a47"/><path data-name="Rectangle 475" fill="#0c2a47" d="M46.872 30.902h194.336v29.727H46.872z"/><path data-name="Path 206" d="M48.047 32.077h191.987v27.378H48.047zm-2.35 29.731h196.688v-32.08H45.697z" fill="#0c2a47"/><path data-name="Path 207" d="M236.061 68.126H39.375V38.398H6.511V6.321h7.5V8.67H8.86v27.379h32.865v29.728h191.987v-5.148h2.349z" fill="#0c2a47"/><path data-name="Path 208" d="M0 12.831v32.077h32.864v29.729H229.55v-7.5h-2.35v5.148H35.213V42.559H2.349V15.182H7.5v-2.351z" fill="#0c2a47"/><path data-name="Path 209" d="M66.956 38.234h-4.088L53.66 54.143h4.058l1.909-3.4h10.2l1.909 3.4h4.428zm-5.814 9.8l3.582-6.348 3.588 6.348z" fill="#fff"/><g data-name="Group 195"><g data-name="Group 194" clip-path="url(#a)"><path data-name="Path 210" d="M94.041 46.629a3.765 3.765 0 002.284-3.635c0-3.16-2.472-4.763-7.353-4.763h-9.931v15.912h3.8v-5.914h6.83c1.979 0 2.784.681 2.784 2.355v3.559h3.776v-3.559c0-1.357-.247-3.16-2.191-3.952m-4.669-1.11h-6.53v-4.164h5.879c4.011 0 4.011 1.568 4.011 2.079 0 1.721-1.826 2.085-3.359 2.085" fill="#fff"/><path data-name="Path 211" d="M118.307 48.517c-.281 3.019-3.095 5.9-8.991 5.9-4.745 0-9.814-2.149-9.814-8.187 0-5.027 3.794-8.275 9.672-8.275 6.049 0 8.9 3.118 9.068 6.119h-3.553c-.287-1.345-1.815-3-5.35-3-3.67 0-5.949 1.973-5.949 5.15 0 2.449 1.579 5.062 6 5.062 3.3 0 5-1.31 5.374-2.778z" fill="#fff"/><path data-name="Path 212" d="M137.138 44.381h-11.4v-6.147h-3.8v15.907h3.8v-6.729h11.4v6.728h3.777V38.234h-3.777z" fill="#fff"/><path data-name="Rectangle 476" fill="#fff" d="M148.018 38.234h3.777V54.14h-3.777z"/><path data-name="Path 213" d="M169.283 50.611l-6.973-12.376h-4.379l9.113 15.906h4.136l9.089-15.906h-4.059z" fill="#fff"/><path data-name="Rectangle 477" fill="#fff" d="M186.393 38.234h3.777V54.14h-3.777z"/><path data-name="Path 214" d="M214.614 49.005c0 3.594-3.124 5.415-9.279 5.415-5.673 0-8.651-1.791-8.85-5.327h3.512c.141 1.092 1.057 2.32 5.338 2.32 4.827 0 5.479-1.1 5.479-2.173 0-.423-.135-.946-1.2-1.233a32.741 32.741 0 00-4.287-.358c-.364-.018-.722-.035-1.051-.053a18.969 18.969 0 01-5.861-.957 3.576 3.576 0 01-2.032-3.359c0-2.572 2.331-5.321 8.885-5.321 5.767 0 8.445 1.6 8.621 5.186h-3.512c-.147-1.081-1.051-2.179-5.109-2.179-3.295 0-5.109.74-5.109 2.079 0 .587.288.934.992 1.192a25.063 25.063 0 004.516.458l.664.035a23.411 23.411 0 015.832.763 3.671 3.671 0 012.455 3.512" fill="#fff"/><path data-name="Path 215" d="M216.585 38.234v3.125h6.611v12.782h3.8V41.359h6.612v-3.125z" fill="#fff"/><path data-name="Rectangle 478" fill="#0c2a47" d="M33.208 42.904l12.833-12.833 1.661 1.66L34.87 44.566z"/><path data-name="Rectangle 479" fill="#fff" d="M183.228 38.235h10.105v3.125h-10.105z"/><path data-name="Rectangle 480" fill="#fff" d="M183.228 51.016h10.105v3.125h-10.105z"/><path data-name="Rectangle 481" fill="#fff" d="M144.854 38.235h10.105v3.125h-10.105z"/><path data-name="Rectangle 482" fill="#fff" d="M144.854 51.016h10.105v3.125h-10.105z"/></g></g></svg>