<svg xmlns="http://www.w3.org/2000/svg" viewBox="0 0 192.335 192.209"><path d="M96.22 192.103c-1.838 0-3.682-.052-5.53-.156-25.622-1.444-49.148-12.78-66.243-31.917A95.966 95.966 0 0112.676 48.376a1.5 1.5 0 012.606 1.488 92.965 92.965 0 0011.404 108.167c16.562 18.54 39.352 29.522 64.173 30.922 24.814 1.401 48.703-6.952 67.243-23.513 38.272-34.188 41.595-93.142 7.406-131.416C131.318-4.25 72.365-7.572 34.093 26.616a1.5 1.5 0 11-1.998-2.237c39.508-35.29 100.36-31.86 135.65 7.647 35.291 39.508 31.86 100.36-7.648 135.651-17.755 15.861-40.259 24.426-63.878 24.426z" fill="#0099ec"/><path d="M165.402 162.108c-.366 0-.734-.133-1.023-.403L95.856 97.803a1.879 1.879 0 01-.594-1.299 1.886 1.886 0 011.806-1.953l93.715-3.273c.854-.01 1.524.62 1.552 1.447a1.5 1.5 0 01-1.446 1.552l-91.006 3.176 66.545 62.057a1.5 1.5 0 01-1.026 2.598zm-65.888 30.101a1.5 1.5 0 01-1.498-1.448l-1.1-31.497a1.5 1.5 0 011.446-1.552 1.484 1.484 0 011.553 1.447l1.1 31.498a1.5 1.5 0 01-1.447 1.551h-.054z" fill="#0099ec"/><path d="M97.745 141.611a1.5 1.5 0 01-1.498-1.447l-1.535-44.029a1.5 1.5 0 011.445-1.551 1.474 1.474 0 011.553 1.447l1.535 44.028a1.5 1.5 0 01-1.445 1.552h-.055z" fill="#0099ec"/></svg>