<svg xmlns="http://www.w3.org/2000/svg" viewBox="0 0 1302.744 1059.634"><g fill="none" stroke="#3399ec" stroke-width="3" stroke-linecap="round" stroke-miterlimit="10"><path d="M1301.244 1029.05c-39.516-12.37-60.992 25.306-62.945 28.923a.057.057 0 01-.08.018.058.058 0 01-.027-.054c.454-4.084 4.3-47.286-35.217-59.66"/><path d="M1.5 1.468c19.045 186.36 51.067 396.056 203.873 504.424 111.481 79.059 264.825 80.858 392.24 31.427 127.417-49.43 232.484-143.637 323.263-245.803 29.285-32.959 58.181-68.378 69.835-110.897s1.594-94.014-34.741-118.986c-34.183-23.49-83.297-16.73-115.88 8.938s-50.298 66.516-56.627 107.508c-17.71 114.705 44.92 227.503 123.408 313.005s174.483 154.277 247.615 244.403 121.973 212.879 83.702 322.45"/></g></svg>