<svg xmlns="http://www.w3.org/2000/svg" viewBox="0 0 55.109 46.08"><path d="M48.435 33.99a1.5 1.5 0 01-1.233-2.352c1.806-2.615 1.642-11.025-.76-12.9-1.381-1.078-2.432-.644-4.865.777-1.982 1.157-4.446 2.6-7.436 1.74l-.072-.023a10.223 10.223 0 01-6.878-10.29C27.515 5.726 31.853 1.081 37.28.14c5.246-.72 10.503 1.385 13.77 5.49 3.135 4.081 4.523 9.119 3.923 14.205a29.314 29.314 0 01-5.32 13.533c-.293.405-.752.62-1.217.621zm-3.497-18.862c1.068 0 2.19.338 3.35 1.244 1.69 1.32 2.643 3.911 2.991 6.734.323-1.19.564-2.405.716-3.633a16.43 16.43 0 00-3.31-11.996c-2.593-3.261-6.792-4.94-10.943-4.374-3.977.692-7.318 4.22-7.555 8.025a7.217 7.217 0 004.819 7.252c1.737.482 3.277-.417 5.059-1.457 1.427-.833 3.074-1.795 4.873-1.795zM17.676 46.08a1.498 1.498 0 01-1.077-2.543c2.21-2.282 3.43-10.605 1.37-12.849-1.186-1.293-2.294-1.036-4.926-.034-2.147.817-4.818 1.834-7.623.495-.023-.01-.045-.022-.067-.034A10.225 10.225 0 01.263 19.84c1.173-5.09 6.214-8.959 11.725-8.998 5.295.15 10.134 3.09 12.681 7.677 2.42 4.54 2.962 9.735 1.535 14.652a29.325 29.325 0 01-7.473 12.477 1.509 1.509 0 01-1.055.432zm-1.487-19.273c1.346 0 2.712.46 3.989 1.852 1.45 1.58 1.962 4.292 1.842 7.133a26.272 26.272 0 001.305-3.468 16.443 16.443 0 00-1.292-12.373c-2.024-3.641-5.89-5.992-10.08-6.112-4.038.03-7.913 2.96-8.768 6.674a7.217 7.217 0 003.56 7.942c1.634.762 3.303.129 5.232-.606 1.287-.49 2.738-1.042 4.212-1.042z" fill="#3399ec"/></svg>