<svg xmlns="http://www.w3.org/2000/svg" viewBox="0 0 91.696 75.96"><path d="M27.444 75.96c-10.66 0-19.979-2.782-23.427-5.998l-2.465-2.299 3.359-.292c.115-.01 10.73-.988 17.2-6.049C15.147 56.749-9.117 38.08 3.653 6.975l1.301-3.167 1.447 3.104c.138.297 14.146 29.578 44.548 29.578.127 0 .243-.002.377-.001a1.5 1.5 0 01.012 3l-.391.001c-26.339.002-41.025-20.552-45.652-28.357-10.696 31.445 18.743 47.948 20.041 48.656l1.76.96-1.417 1.418c-4.596 4.596-11.833 6.675-16.373 7.57 5.083 2.256 14.307 4.034 24.579 2.86a1.5 1.5 0 01.34 2.981c-2.29.262-4.566.382-6.781.382z" fill="#0099ec"/><path d="M66.711 58.545a1.5 1.5 0 01-1.194-2.407C77.12 40.83 74.51 19.139 74.481 18.922l-.084-.661 9.479-11.05-12.36 2.302-.562-.693a15.702 15.702 0 00-17.748-4.807 15.614 15.614 0 00-8.782 8.227 15.626 15.626 0 00-.393 12.027 1.5 1.5 0 01-2.807 1.057 18.593 18.593 0 01.467-14.322 18.594 18.594 0 0110.458-9.796 18.692 18.692 0 0120.548 5.036l19-3.539-14.164 16.51c.392 3.96 1.69 23.809-9.625 38.737a1.5 1.5 0 01-1.197.595z" fill="#0099ec"/></svg>