<svg xmlns="http://www.w3.org/2000/svg" viewBox="0 0 77.988 77.973"><path d="M28.609 57.228c-3.65 0-7.301-.707-10.776-2.12a1.5 1.5 0 011.131-2.78 25.464 25.464 0 0019.342-.021c13.068-5.348 19.35-20.33 14.002-33.398C46.959 5.843 31.978-.438 18.91 4.908 5.842 10.256-.439 25.238 4.908 38.306a1.5 1.5 0 01-2.777 1.136C-3.843 24.843 3.175 8.106 17.774 2.131c14.602-5.975 31.337 1.044 37.311 15.643S54.04 49.11 39.442 55.084a28.569 28.569 0 01-10.833 2.144z" fill="#0099ec"/><path d="M76.488 77.973c-.384 0-.768-.146-1.061-.439L46.715 48.822a1.5 1.5 0 112.121-2.121l28.712 28.712a1.5 1.5 0 01-1.06 2.56zM28.617 47.649c-7.217.001-14.182-3.968-17.652-10.839-4.906-9.716-.994-21.612 8.723-26.519a19.822 19.822 0 0115.581-.954 1.5 1.5 0 01-1.016 2.823 16.809 16.809 0 00-13.214.808 16.628 16.628 0 00-8.355 9.712 16.628 16.628 0 00.959 12.776 16.629 16.629 0 009.713 8.356 16.63 16.63 0 0012.776-.959 16.628 16.628 0 008.355-9.712 16.628 16.628 0 00-.959-12.776 1.5 1.5 0 112.678-1.352c2.377 4.707 2.778 10.057 1.131 15.066s-5.146 9.076-9.854 11.453a19.623 19.623 0 01-8.866 2.117z" fill="#0099ec"/></svg>