<svg xmlns="http://www.w3.org/2000/svg" viewBox="0 0 279.518 144.311"><path d="M199.457 104.632a1.502 1.502 0 01-1.205-2.394c9.045-12.198 15.936-22.028 22.599-31.535 8.78-12.527 17.073-24.36 29.288-40.184a1.5 1.5 0 012.375 1.833c-12.173 15.769-20.446 27.574-29.207 40.072-6.674 9.523-13.576 19.37-22.645 31.6a1.49 1.49 0 01-1.205.608zm-27.045 3.483c-.325 0-.652-.105-.927-.322a18631.043 18631.043 0 00-30.346-23.829 15693.925 15693.925 0 01-34.608-27.188 1.5 1.5 0 011.857-2.355 15993.398 15993.398 0 0034.602 27.183 17704.143 17704.143 0 0130.351 23.833 1.499 1.499 0 01-.929 2.678zM69.844 75.729a1.5 1.5 0 01-1.092-2.528c6.254-6.649 11.402-12.006 16.693-17.369a1.5 1.5 0 112.135 2.106c-5.272 5.346-10.406 10.687-16.643 17.318a1.498 1.498 0 01-1.093.473zm-38.86 40.956a1.5 1.5 0 01-1.069-2.553c10.763-10.911 19.262-19.97 27.736-29.056a1.5 1.5 0 112.193 2.046c-8.489 9.102-17.004 18.178-27.793 29.116a1.488 1.488 0 01-1.067.447z" fill="#3399ec"/><path d="M96.412 62.468c-.807 0-1.622-.063-2.443-.193a15.493 15.493 0 01-10.177-6.232 15.487 15.487 0 01-2.807-11.491l.019-.124c1.35-8.491 9.344-14.3 17.847-12.954a15.49 15.49 0 0110.173 6.24 15.492 15.492 0 012.78 11.606c-1.217 7.665-7.864 13.148-15.392 13.148zM83.984 44.791l-.019.117a12.507 12.507 0 002.253 9.371 12.51 12.51 0 008.219 5.034c6.852 1.085 13.316-3.61 14.403-10.463a12.513 12.513 0 00-2.245-9.373 12.516 12.516 0 00-8.216-5.04c-6.834-1.087-13.254 3.555-14.395 10.354zm-1.499-.123h.01-.01zm114.7 92.552a1.501 1.501 0 01-.731-2.811 17.911 17.911 0 005.165-4.315c6.29-7.673 5.165-19.033-2.508-25.323a17.889 17.889 0 00-13.182-3.991 17.879 17.879 0 00-12.142 6.499 17.87 17.87 0 00-3.991 13.181 17.873 17.873 0 006.499 12.142 1.5 1.5 0 11-1.902 2.32c-4.337-3.555-7.029-8.586-7.582-14.167s1.101-11.042 4.656-15.379a20.86 20.86 0 0114.167-7.582 20.883 20.883 0 0115.379 4.656c8.952 7.339 10.265 20.593 2.926 29.546a20.905 20.905 0 01-6.026 5.034c-.231.129-.481.19-.728.19zm64.461-101.454c-.928 0-1.867-.073-2.812-.223-9.731-1.544-16.396-10.719-14.857-20.451.745-4.717 3.283-8.862 7.146-11.67s8.589-3.944 13.306-3.198l.01.001c9.736 1.545 16.401 10.724 14.857 20.461-1.396 8.792-9.015 15.08-17.65 15.08zM261.603 3c-3.113 0-6.145.979-8.717 2.849a14.778 14.778 0 00-5.947 9.712c-1.28 8.099 4.267 15.734 12.365 17.02 8.111 1.282 15.742-4.262 17.028-12.365 1.285-8.103-4.262-15.742-12.365-17.028l-.021-.003A14.937 14.937 0 00261.603 3zM17.92 144.311c-.942 0-1.891-.075-2.84-.225-9.733-1.544-16.399-10.72-14.858-20.455a17.765 17.765 0 017.15-11.669 17.766 17.766 0 0113.283-3.199l.028.004a17.766 17.766 0 0111.666 7.153 17.757 17.757 0 013.191 13.308 17.763 17.763 0 01-7.153 11.667 17.742 17.742 0 01-10.467 3.416zm-.071-32.767c-3.116 0-6.145.978-8.715 2.846a14.785 14.785 0 00-5.95 9.711c-1.282 8.101 4.265 15.738 12.366 17.023a14.78 14.78 0 0011.074-2.656 14.78 14.78 0 005.953-9.709 14.784 14.784 0 00-2.655-11.075 14.783 14.783 0 00-9.622-5.939l-.092-.015a15.16 15.16 0 00-2.359-.186z" fill="#3399ec"/></svg>