<svg xmlns="http://www.w3.org/2000/svg" viewBox="0 0 58.935 49.13"><path d="M57.649 0H1.286A1.287 1.287 0 000 1.285v35.533A1.288 1.288 0 001.286 38.1h20.142L28.4 48.555a1.284 1.284 0 002.141 0L37.506 38.1h20.143a1.288 1.288 0 001.286-1.287V1.285A1.287 1.287 0 0057.649 0m-1.287 2.57v32.961H36.819a1.28 1.28 0 00-1.07.573l-6.282 9.422-6.28-9.421a1.282 1.282 0 00-1.071-.575H2.571V2.57h53.791z" fill="#0099ec"/><path d="M28.977 30.751c.34.001.667-.135.907-.376 5.307-5.293 10.793-10.771 10.793-16.526a6.5 6.5 0 00-6.487-6.5 5.939 5.939 0 00-5.215 2.664 6.011 6.011 0 00-5.2-2.664 6.506 6.506 0 00-6.5 6.5c0 5.733 5.485 11.219 10.788 16.521.24.245.569.382.912.381m-5.2-20.83c1.667 0 2.7.478 4.05 3.191.218.437.664.714 1.152.716.487.002.933-.273 1.15-.709 1.365-2.719 2.4-3.2 4.063-3.2a3.927 3.927 0 013.917 3.928c0 4.52-4.751 9.422-9.129 13.8-4.379-4.388-9.13-9.3-9.13-13.8a3.932 3.932 0 013.928-3.928" fill="#f7892d"/></svg>