<svg xmlns="http://www.w3.org/2000/svg" viewBox="0 0 59.97 60"><path d="M51.195 8.79C45.535 3.12 37.995 0 29.985 0s-15.55 3.12-21.21 8.79c-11.7 11.7-11.7 30.73 0 42.43 5.66 5.66 13.2 8.78 21.21 8.78s15.55-3.12 21.21-8.78c11.7-11.7 11.7-30.73 0-42.43zm-21.21 48.55c-7.3 0-14.17-2.84-19.33-8-5.17-5.17-8.01-12.03-8.01-19.34 0-7.3 2.84-14.16 8.01-19.33 5.16-5.16 12.03-8.01 19.33-8.01 15.06.02 27.32 12.29 27.34 27.34 0 7.31-2.84 14.17-8.01 19.34-5.16 5.16-12.03 8-19.33 8z" fill="#0099ec"/><g fill="#f7892d"><path d="M16.655 17.29c-.03 0-.07-.02-.1-.03l-.1-.03.1-.23.07.02.03.27z"/><path d="M16.625 17.02l-.07-.02-.1.23.1.03c.03.01.07.03.1.03l-.03-.27z"/><path d="M48.605 21.79c-1-2.4-2.46-4.6-4.35-6.5-7.01-6.99-18.13-7.79-26.06-1.94v-2.4a1.33 1.33 0 10-2.66 0v5.3c.01.06.01.11.02.12 0 .04 0 .09.01.13.01.06.03.11.05.17l.03.08c.02.04.04.09.05.1l.06.12c.02.03.04.05.08.09.02.04.05.07.1.12.04.04.08.08.13.11l.07.05c.04.03.09.05.15.08l.07.04c.03.01.06.02.16.05.02.01.05.02.1.03.05.01.1.01.17.02l5.36.01c.38 0 .69-.12.95-.37.26-.24.41-.57.42-.92.01-.36-.12-.7-.36-.96-.24-.25-.57-.4-.92-.41h-1.63c3.64-2.38 7.97-3.29 12.28-2.59 4.57.75 8.58 3.24 11.29 7.01 2.71 3.76 3.78 8.35 3.03 12.93-.74 4.58-3.23 8.59-7 11.29a17.277 17.277 0 01-22.4-1.82c-.53-.5-1.38-.49-1.88.04-.5.52-.5 1.33 0 1.85 3.79 3.78 8.82 5.86 14.16 5.86 5.35 0 10.38-2.08 14.17-5.86 3.78-3.79 5.86-8.82 5.86-14.17 0-2.68-.52-5.27-1.51-7.66zm-32.05-4.53l-.1-.03.1-.23.07.02.03.27c-.03 0-.07-.02-.1-.03z"/></g><path d="M39.995 29.92v.25h-.01v-.25h-6.38a3.86 3.86 0 00-2.26-2.25v-6.38a1.33 1.33 0 10-2.66-.09v6.47c-.89.33-1.62.97-2.06 1.82-.47.9-.56 1.94-.25 2.91.3.98.97 1.77 1.88 2.24a3.763 3.763 0 002.91.26 3.854 3.854 0 002.44-2.32h6.39c.73 0 1.33-.6 1.33-1.33 0-.73-.6-1.33-1.33-1.33zm-9.98.17c.64 0 1.16.52 1.16 1.16 0 .64-.52 1.17-1.16 1.17h-.01c-.31 0-.6-.13-.82-.35a1.15 1.15 0 01-.34-.82c0-.64.52-1.16 1.17-1.16z" fill="#0099ec"/></svg>