<svg xmlns="http://www.w3.org/2000/svg" viewBox="0 0 59.12 56.03"><path d="M58.671 42.669l-2.891-2.492a1.273 1.273 0 00-1.7 1.894l.4.3h-5.779v-3.989a1.321 1.321 0 00-1.3-1.3h-7.174c.568-2.554.87-5.16.9-7.776h9.471a1.321 1.321 0 001.3-1.3C51.875 15.625 41.841 5.597 29.46 5.582c-4.287 0-7.875 4.087-9.969 10.467h-6.58v-3.987a1.32 1.32 0 00-1.3-1.3H4.636l.4-.3a1.27 1.27 0 00-1.696-1.89L.449 11.065a1.224 1.224 0 000 1.894l2.891 2.493a1.268 1.268 0 001.791-.095l.004-.005a1.37 1.37 0 00-.1-1.8l-.4-.3h5.783v3.989c.01.714.586 1.29 1.3 1.3h7.178a35.497 35.497 0 00-1 8.275H8.425c-.714.01-1.29.586-1.3 1.3.02 12.381 10.054 22.412 22.435 22.429 4.386 0 8.075-4.387 10.069-10.967h6.58v3.989c.01.714.586 1.29 1.3 1.3h6.979l-.4.3a1.273 1.273 0 001.7 1.894l2.883-2.499a1.223 1.223 0 000-1.894m-20.936-5.582h-6.979V29.31h7.976a31.875 31.875 0 01-1 7.776m-9.368 10.766c-1.795-.6-3.589-2.492-4.985-5.284a13.375 13.375 0 01-1.2-2.991h6.181l.004 8.275zm-6.979-10.766a37.661 37.661 0 01-1-7.776h7.976v7.776h-6.976zM9.721 29.409h8.175a46.31 46.31 0 00.9 7.777h-7.081a20.347 20.347 0 01-1.994-7.777M30.856 8.373c1.795.6 3.589 2.492 4.985 5.284.393.805.727 1.638 1 2.492h-6.085l.1-7.776zm6.779 10.268a35.331 35.331 0 011.1 8.275h-7.979v-8.275h6.879zm11.866 8.275h-8.177a43.723 43.723 0 00-1-8.275h6.779a19.465 19.465 0 012.398 8.275m-3.99-10.766H39.53a19.45 19.45 0 00-3.589-6.879 19.654 19.654 0 019.571 6.879m-22.233-2.393c1.4-2.891 3.19-4.686 4.984-5.284v7.776h-6.08c.4-.9.7-1.794 1.1-2.492m-1.795 4.884h6.779v8.275h-7.979a53.361 53.361 0 011.2-8.275M13.31 39.577h6.181a21.27 21.27 0 003.688 7.378 19.167 19.167 0 01-9.87-7.378m22.532 2.992c-1.4 2.891-3.19 4.686-4.985 5.284v-8.276h6.181a13.375 13.375 0 01-1.2 2.991" fill="#0099ec"/><path d="M8.923 2.491h26.22c10.322.031 18.667 8.421 18.643 18.743a1.3 1.3 0 002.592 0C56.379 9.544 46.931.053 35.242 0H8.923c-.714.01-1.29.586-1.3 1.3.019.682.587 1.22 1.27 1.201l.03-.001m41.074 51.035h-26.12c-10.342-.021-18.722-8.4-18.745-18.742a1.3 1.3 0 00-2.592 0c.01 11.724 9.511 21.225 21.235 21.235h26.22a1.249 1.249 0 10.001-2.493" fill="#f7892d"/></svg>