<svg xmlns="http://www.w3.org/2000/svg" viewBox="0 0 53.932 49.13"><path d="M12.028 18.19a5 5 0 105 5 5.827 5.827 0 00-.686-2.549l4.411-4.411a4.783 4.783 0 005.1 0l4.412 4.411a4.53 4.53 0 00-.687 2.549 5 5 0 0010 0 5.827 5.827 0 00-.686-2.549l4.401-4.411a4.527 4.527 0 002.548.687 5 5 0 10-5-5c.031.891.266 1.763.687 2.549l-4.411 4.41a4.783 4.783 0 00-5.1 0l-4.411-4.41a5.181 5.181 0 00.686-2.549 5 5 0 00-10 0c.031.891.266 1.763.687 2.549l-4.412 4.41a5.17 5.17 0 00-2.548-.687m0 7.449a2.548 2.548 0 112.548-2.548 2.472 2.472 0 01-2.548 2.548M45.746 9.467a2.548 2.548 0 11-2.548 2.548 2.53 2.53 0 012.512-2.548h.036M37.023 23.19a2.548 2.548 0 11-2.548-2.549 2.53 2.53 0 012.548 2.514v.035M23.3 9.467a2.548 2.548 0 11-2.548 2.548 2.53 2.53 0 012.512-2.548h.036" fill="#f7892d"/><path d="M53.784 44.745c-.1-.2 0-.1-2.646-2.646a1.248 1.248 0 00-1.765 1.764l.393.393h-3.138V20.829h-2.45v23.328h-8.625V31.905h-2.451v12.252h-8.626V22.1h-2.449v22.057h-8.63V31.905H10.95v12.252H4.775V4.165l.392.393a1.248 1.248 0 001.765-1.764L4.285.147a1.456 1.456 0 00-1.275 0L.365 2.794a1.248 1.248 0 001.764 1.764l.393-.393v41.169a1.3 1.3 0 001.275 1.273h46.066l-.391.393a1.248 1.248 0 001.764 1.764l2.548-2.548c.197-.47.197-1 0-1.471" fill="#0099ec"/></svg>