<svg xmlns="http://www.w3.org/2000/svg" viewBox="0 0 25.125 51.988"><path d="M25.125 25.994c0-.039-.007-.079-.01-.119-.005-.062-.008-.123-.021-.183l-.002-.016c-.002-.009-.008-.015-.01-.024a1.504 1.504 0 00-.179-.441l-.011-.021a1.52 1.52 0 00-.3-.336c-.019-.016-.036-.033-.055-.048a1.524 1.524 0 00-.375-.209c-.029-.011-.057-.019-.087-.028-.044-.014-.085-.032-.13-.042-.053-.012-5.392-1.201-10.626-4.686C6.476 15.287 3.003 9.115 3 1.5A1.5 1.5 0 001.5 0h-.001A1.5 1.5 0 000 1.5c.006 14.936 12.021 21.806 18.797 24.493C12.021 28.681.006 35.551 0 50.487a1.5 1.5 0 001.499 1.5H1.5a1.5 1.5 0 001.5-1.5c.003-7.616 3.476-13.788 10.319-18.343 5.234-3.484 10.573-4.674 10.626-4.686.034-.007.063-.022.096-.031.057-.016.113-.031.167-.054.045-.019.086-.044.129-.067.042-.023.085-.044.125-.071.042-.029.08-.062.119-.094.035-.03.072-.057.104-.09.035-.035.065-.073.096-.112.03-.037.062-.072.088-.112.029-.042.051-.088.075-.134.021-.04.044-.078.062-.12.024-.058.041-.118.058-.179.008-.029.021-.056.028-.086.001-.005 0-.01.002-.016.012-.06.016-.121.021-.183.003-.036.01-.076.01-.115z" fill="#3399ec"/></svg>