<svg xmlns="http://www.w3.org/2000/svg" viewBox="0 0 25.125 51.988"><path d="M6.328 25.994c6.776-2.687 18.79-9.558 18.796-24.494A1.5 1.5 0 0023.625 0h-.001a1.5 1.5 0 00-1.5 1.5c-.003 7.616-3.476 13.788-10.318 18.343-5.234 3.484-10.573 4.674-10.626 4.685-.034.007-.063.022-.096.031-.056.016-.113.031-.167.054-.045.019-.086.044-.129.067-.042.023-.085.044-.125.071-.042.029-.08.062-.119.094-.035.03-.072.057-.104.09-.035.035-.065.073-.096.112-.031.037-.062.072-.088.112-.029.042-.051.088-.075.134-.021.04-.044.078-.062.12a1.558 1.558 0 00-.058.179c-.008.029-.021.056-.028.086-.001.005 0 .01-.002.016-.012.06-.016.121-.021.183-.003.038-.01.078-.01.117 0 .039.007.079.01.119.005.062.009.123.021.183l.002.016c.002.009.008.015.01.024.037.157.096.306.18.442l.01.02c.081.127.184.237.3.336.019.016.036.033.055.048.113.086.238.156.375.209.029.011.057.019.086.028.044.014.085.033.13.042.053.012 5.392 1.201 10.626 4.686 6.843 4.555 10.315 10.727 10.318 18.343a1.5 1.5 0 001.5 1.5h.001a1.5 1.5 0 001.499-1.5c-.005-14.938-12.019-21.809-18.795-24.496z" fill="#3399ec"/></svg>